<?xml version="1.0" standalone="no"?>
<!DOCTYPE svg PUBLIC "-//W3C//DTD SVG 20010904//EN"
 "http://www.w3.org/TR/2001/REC-SVG-20010904/DTD/svg10.dtd">
<svg version="1.0" xmlns="http://www.w3.org/2000/svg"
 width="500.000000pt" height="500.000000pt" viewBox="0 0 500.000000 500.000000"
 preserveAspectRatio="xMidYMid meet">

<g transform="translate(0.000000,500.000000) scale(0.100000,-0.100000)"
fill="#000000" stroke="none">
<path d="M0 2500 l0 -2500 2500 0 2500 0 0 2500 0 2500 -2500 0 -2500 0 0
-2500z m2120 555 c0 -33 -2 -35 -35 -35 -64 0 -66 -10 -63 -334 3 -315 3 -314
66 -319 30 -2 32 -4 32 -39 0 -35 -2 -38 -27 -38 -49 1 -106 18 -127 40 -19
18 -22 36 -26 149 -6 147 -15 167 -82 177 -35 6 -38 9 -38 40 0 32 2 34 34 34
19 0 44 9 57 19 22 18 24 28 30 148 3 70 9 135 13 144 12 28 62 47 124 48 42
1 42 1 42 -34z m741 20 c41 -22 49 -50 49 -165 0 -140 19 -179 88 -180 30 0
32 -2 32 -35 0 -30 -3 -35 -25 -35 -38 0 -73 -20 -84 -49 -5 -14 -11 -79 -13
-143 -4 -147 -13 -160 -113 -166 l-65 -4 0 30 c0 27 4 30 40 36 25 4 43 14 50
26 7 14 10 117 8 311 -3 274 -4 291 -22 305 -11 8 -32 14 -48 14 -25 0 -28 3
-28 35 l0 35 50 0 c28 0 64 -7 81 -15z m-601 -280 c42 -21 60 -53 60 -103 0
-37 -6 -50 -34 -78 -28 -28 -42 -34 -76 -34 -34 0 -48 6 -76 34 -28 28 -34 42
-34 76 0 52 13 76 53 100 38 24 68 25 107 5z m430 0 c42 -21 60 -53 60 -103 0
-37 -6 -50 -34 -78 -28 -28 -42 -34 -76 -34 -34 0 -48 6 -76 34 -28 28 -34 41
-34 78 0 51 21 85 64 104 41 17 61 17 96 -1z m400 -715 c0 -5 -4 -10 -10 -10
-5 0 -10 5 -10 10 0 6 5 10 10 10 6 0 10 -4 10 -10z m-880 -28 c0 -27 2 -29
43 -28 l42 1 3 -58 c2 -39 0 -57 -7 -52 -6 3 -11 26 -11 50 0 52 -12 63 -45
41 -20 -13 -25 -25 -25 -56 0 -22 -4 -40 -10 -40 -6 0 -10 35 -10 85 0 50 4
85 10 85 6 0 10 -13 10 -28z m430 -55 l0 -83 -42 -1 c-53 -3 -68 10 -68 57 0
46 20 65 60 56 28 -5 30 -3 30 24 0 17 5 30 10 30 6 0 10 -34 10 -83z m670 0
l0 -83 -42 -1 c-53 -3 -68 10 -68 57 0 46 20 65 60 56 28 -5 30 -3 30 24 0 17
5 30 10 30 6 0 10 -34 10 -83z m-1410 53 c0 -15 7 -20 28 -21 l27 -2 -27 -4
c-26 -4 -28 -8 -28 -54 0 -41 3 -49 18 -49 10 0 24 6 31 13 11 10 13 9 9 -3
-6 -19 -45 -25 -64 -10 -8 8 -14 30 -14 56 0 28 -5 44 -12 45 -10 0 -10 2 0 6
6 2 12 13 12 24 0 10 5 19 10 19 6 0 10 -9 10 -20z m170 -6 c0 -8 11 -15 28
-15 l27 -2 -27 -4 c-26 -4 -28 -8 -28 -48 0 -50 10 -61 41 -44 17 9 20 8 17
-3 -3 -7 -19 -13 -39 -13 -33 0 -34 1 -37 45 -2 24 -8 50 -14 57 -7 9 -7 13 1
13 6 0 11 9 11 21 0 11 5 17 10 14 6 -3 10 -13 10 -21z m-530 -23 c0 -5 13 -4
29 2 44 16 61 -3 60 -67 -1 -40 -3 -46 -9 -26 -4 14 -8 40 -9 58 -1 35 -7 38
-46 20 -21 -9 -25 -18 -25 -55 0 -23 -4 -43 -10 -43 -6 0 -10 27 -10 60 0 33
4 60 10 60 6 0 10 -4 10 -9z m254 -23 c16 -45 -3 -82 -42 -86 -44 -4 -62 12
-62 57 0 47 16 63 60 59 28 -2 37 -9 44 -30z m664 20 c7 -7 12 -22 12 -35 0
-21 -5 -23 -45 -23 -67 0 -55 -34 15 -43 31 -3 30 -4 -10 -5 -55 -2 -70 10
-70 58 0 44 15 60 55 60 17 0 36 -5 43 -12z m276 1 c22 18 60 10 64 -14 2 -18
2 -18 -8 -2 -6 9 -17 17 -24 17 -22 0 -54 -44 -59 -80 -2 -21 -4 -8 -5 30 -1
42 1 60 7 51 8 -12 12 -12 25 -2z m224 -1 c16 -16 16 -80 0 -96 -13 -13 -47
-16 -72 -6 -20 8 -23 100 -3 107 23 10 63 7 75 -5z m132 -42 c0 -49 2 -55 23
-59 12 -2 0 -4 -28 -4 -27 0 -40 2 -27 4 19 4 22 11 22 53 0 42 -3 49 -22 53
-20 4 -19 4 5 6 26 1 27 0 27 -53z m380 46 c0 -4 -18 -6 -40 -4 -54 5 -53 -17
1 -40 33 -14 40 -21 37 -40 -2 -19 -10 -24 -42 -26 -21 -2 -43 1 -48 6 -5 5 8
8 33 8 59 -1 61 20 5 45 -43 18 -56 36 -39 52 9 10 93 9 93 -1z"/>
<path d="M2552 2008 c-17 -17 -15 -63 3 -78 26 -21 65 3 65 39 0 41 -42 65
-68 39z"/>
<path d="M3220 2001 c-14 -26 -13 -44 4 -66 12 -17 18 -18 40 -7 46 21 28 92
-23 92 -6 0 -15 -9 -21 -19z"/>
<path d="M1714 2007 c-3 -8 -4 -30 -2 -49 3 -29 6 -33 33 -33 29 0 30 2 30 45
0 42 -2 45 -28 48 -17 2 -29 -2 -33 -11z"/>
<path d="M2393 2013 c-7 -3 -13 -13 -13 -24 0 -15 7 -19 35 -19 28 0 35 4 35
20 0 11 -3 20 -7 21 -5 0 -15 2 -23 3 -8 2 -21 1 -27 -1z"/>
<path d="M2893 2013 c-7 -2 -13 -22 -13 -44 0 -33 4 -40 25 -45 32 -8 55 11
55 45 0 42 -28 60 -67 44z"/>
</g>
</svg>
